<mxfile host="app.diagrams.net" modified="2023-07-29T07:52:29.869Z" agent="Mozilla/5.0 (Windows NT 10.0; Win64; x64) AppleWebKit/537.36 (KHTML, like Gecko) Chrome/115.0.0.0 Safari/537.36" etag="WS05nQMrCjgfdSDQJaT2" version="21.6.6" type="github">
  <diagram name="第 1 页" id="6dhRndmSGuB69KFOTUqt">
    <mxGraphModel dx="1715" dy="715" grid="1" gridSize="10" guides="1" tooltips="1" connect="1" arrows="1" fold="1" page="1" pageScale="1" pageWidth="827" pageHeight="1169" math="0" shadow="0">
      <root>
        <mxCell id="0" />
        <mxCell id="1" parent="0" />
        <mxCell id="dfLBpgtxldfQVMQT9-cV-5" value="&lt;h5&gt;https://mp.weixin.qq.com/s/INMPmENUUDAGIh_60UY9Bg&amp;nbsp; ARL增强&lt;/h5&gt;" style="rounded=0;whiteSpace=wrap;html=1;fillColor=#d5e8d4;strokeColor=#82b366;fontColor=#007FFF;" vertex="1" parent="1">
          <mxGeometry x="200" y="45" width="410" height="60" as="geometry" />
        </mxCell>
        <mxCell id="dfLBpgtxldfQVMQT9-cV-6" value="https://github.com/loecho-sec/ARL-Finger-ADD 指纹增强" style="rounded=0;whiteSpace=wrap;html=1;" vertex="1" parent="1">
          <mxGeometry x="-50" y="140" width="320" height="30" as="geometry" />
        </mxCell>
        <mxCell id="dfLBpgtxldfQVMQT9-cV-7" value="https://h11ba1.com/2021/07/01/arl_poc%E7%BC%96%E5%86%99/&amp;nbsp; poc添加" style="rounded=0;whiteSpace=wrap;html=1;" vertex="1" parent="1">
          <mxGeometry x="350" y="140" width="430" height="30" as="geometry" />
        </mxCell>
      </root>
    </mxGraphModel>
  </diagram>
</mxfile>
